<svg width="98" height="22" viewBox="0 0 98 22" fill="none" xmlns="http://www.w3.org/2000/svg">
<path d="M16.044 14.336C16.1187 14.672 16.156 15.0173 16.156 15.372C16.156 16.6787 15.7267 17.8453 14.868 18.872C13.692 19.936 12.3107 20.6547 10.724 21.028H10.696C9.98667 21.196 9.268 21.28 8.54 21.28C7.15867 21.28 5.84267 21.028 4.592 20.524C3.34133 20.02 2.30533 19.32 1.484 18.424C0.98 17.808 0.681333 17.2013 0.588 16.604C0.513333 16.0067 0.597333 15.4933 0.84 15.064C1.10133 14.6347 1.46533 14.2707 1.932 13.972C2.604 13.5427 3.34133 14.1027 4.144 15.652C4.94667 17.2947 5.67467 18.3307 6.328 18.76C7.26133 19.3387 8.19467 19.6093 9.128 19.572C10.08 19.5347 10.7613 19.1893 11.172 18.536C11.34 18.2747 11.4427 17.9667 11.48 17.612C11.536 16.9587 11.3587 16.2773 10.948 15.568C10.556 14.8587 10.0053 14.364 9.296 14.084C8.97867 13.9533 8.47467 13.776 7.784 13.552C7.112 13.328 6.42133 13.1133 5.712 12.908C5.00267 12.684 4.62 12.5627 4.564 12.544C3.91067 12.3387 3.32267 12.0493 2.8 11.676C2.296 11.284 1.86667 10.836 1.512 10.332C1.15733 9.80933 0.896 9.23067 0.728 8.596C0.616 8.16667 0.56 7.71867 0.56 7.252C0.56 6.44933 0.728 5.67467 1.064 4.928C1.4 4.16267 1.86667 3.54667 2.464 3.08C4.256 1.68 6.31867 1.02667 8.652 1.12C10.9853 1.21333 13.0107 2.016 14.728 3.528C15.0827 3.84533 15.372 4.16267 15.596 4.48C15.876 5.00267 15.988 5.52533 15.932 6.048C15.8947 6.57067 15.736 7.04667 15.456 7.476C15.12 7.99867 14.6533 8.288 14.056 8.344C13.4587 8.4 13.0573 8.19467 12.852 7.728C12.1427 6.08533 11.4613 4.93733 10.808 4.284C10.248 3.74267 9.632 3.36 8.96 3.136C8.82933 3.09867 8.71733 3.06133 8.624 3.024C8.60533 3.024 8.57733 3.024 8.54 3.024C8.44667 3.00533 8.344 2.98667 8.232 2.968C8.10133 2.94933 7.97067 2.94 7.84 2.94C7.74667 2.94 7.66267 2.94 7.588 2.94C7.55067 2.94 7.49467 2.94933 7.42 2.968C7.38267 2.968 7.336 2.97733 7.28 2.996C7.24267 2.996 7.196 3.00533 7.14 3.024C7.084 3.04267 7.03733 3.06133 7 3.08C6.98133 3.08 6.95333 3.08933 6.916 3.108C6.636 3.20133 6.384 3.36 6.16 3.584C5.80533 3.93867 5.6 4.37733 5.544 4.9C5.544 4.9 5.544 4.90933 5.544 4.928C5.544 4.928 5.544 4.93733 5.544 4.956C5.488 5.516 5.572 6.104 5.796 6.72C6.03867 7.31733 6.40267 7.868 6.888 8.372C6.98133 8.46533 7.084 8.54933 7.196 8.624C7.308 8.69867 7.41067 8.764 7.504 8.82C7.59733 8.876 7.728 8.932 7.896 8.988C8.064 9.044 8.19467 9.09067 8.288 9.128C8.4 9.14667 8.55867 9.184 8.764 9.24C8.988 9.296 9.14667 9.33333 9.24 9.352C9.33333 9.37067 9.51067 9.408 9.772 9.464C10.0333 9.50133 10.2013 9.52933 10.276 9.548C11.0413 9.69733 11.6293 9.83733 12.04 9.968C13.0853 10.304 13.9627 10.864 14.672 11.648C15.3813 12.4133 15.8387 13.3093 16.044 14.336ZM37.3997 7.084C37.549 7.084 37.689 7.14933 37.8197 7.28C37.9504 7.392 37.9877 7.51333 37.9317 7.644C37.913 7.68133 37.8104 7.812 37.6237 8.036C37.4557 8.26 37.3437 8.428 37.2877 8.54L32.9477 20.58C32.8544 20.804 32.7144 20.916 32.5277 20.916C32.1917 20.9533 31.6784 20.692 30.9877 20.132C30.353 19.628 29.7277 18.62 29.1117 17.108L27.7117 13.72C26.797 15.904 26.1997 17.36 25.9197 18.088C25.4344 19.32 24.7344 20.216 23.8197 20.776C23.7077 20.832 23.5864 20.8787 23.4557 20.916C23.325 20.9347 23.2224 20.944 23.1477 20.944H23.0077C22.765 20.944 22.597 20.8227 22.5037 20.58L17.7157 8.988C17.585 8.74533 17.4544 8.54933 17.3237 8.4C17.2117 8.232 17.0904 8.08267 16.9597 7.952C16.8477 7.82133 16.7544 7.70933 16.6797 7.616C16.6237 7.54133 16.6237 7.46667 16.6797 7.392C16.717 7.29867 16.7824 7.224 16.8757 7.168C16.9877 7.112 17.0904 7.084 17.1837 7.084H21.9157C22.233 7.084 22.4477 7.168 22.5597 7.336C22.6717 7.48533 22.6717 7.644 22.5597 7.812C22.5224 7.88667 22.4104 8.01733 22.2237 8.204C22.0557 8.372 21.925 8.54933 21.8317 8.736C21.7384 8.904 21.729 9.072 21.8037 9.24L24.7717 16.436L26.8157 11.508C26.797 11.396 26.7597 11.2653 26.7037 11.116C26.6664 10.948 26.5264 10.6493 26.2837 10.22C26.041 9.79067 25.7237 9.408 25.3317 9.072C25.145 8.92267 25.2197 8.78267 25.5557 8.652L25.8637 8.568C27.1517 8.47467 28.1784 8.67067 28.9437 9.156C29.765 9.67867 30.4464 10.6307 30.9877 12.012L32.8077 16.436L35.2717 8.932C35.3464 8.74533 35.309 8.57733 35.1597 8.428C35.0104 8.27867 34.8144 8.13867 34.5717 8.008C34.3477 7.87733 34.2077 7.76533 34.1517 7.672C34.0584 7.52267 34.0864 7.392 34.2357 7.28C34.4037 7.14933 34.5997 7.084 34.8237 7.084H37.3997ZM44.364 20.188C44.4574 20.3747 44.4014 20.552 44.196 20.72C43.9907 20.8693 43.7667 20.944 43.524 20.944H37.98C37.7374 20.944 37.5134 20.8693 37.308 20.72C37.1027 20.552 37.056 20.3747 37.168 20.188C37.2054 20.1133 37.3734 19.9547 37.672 19.712C37.9894 19.4507 38.148 19.236 38.148 19.068V12.656C38.1667 12.0587 38.26 11.508 38.428 11.004C38.596 10.5 38.8107 10.08 39.072 9.744C39.3334 9.38933 39.632 9.08133 39.968 8.82C40.304 8.55867 40.6494 8.36267 41.004 8.232C41.3774 8.08267 41.7414 7.98 42.096 7.924C42.4507 7.84933 42.7774 7.82133 43.076 7.84C43.3747 7.84 43.6267 7.87733 43.832 7.952C43.888 7.97067 43.9254 7.99867 43.944 8.036C43.9627 8.05467 43.9534 8.092 43.916 8.148C43.8974 8.204 43.86 8.26933 43.804 8.344C43.7667 8.4 43.72 8.49333 43.664 8.624C43.608 8.75467 43.552 8.904 43.496 9.072C43.4587 9.22133 43.4214 9.42667 43.384 9.688C43.3467 9.94933 43.328 10.2387 43.328 10.556V19.068C43.328 19.236 43.4867 19.4507 43.804 19.712C44.14 19.9547 44.3267 20.1133 44.364 20.188ZM40.864 7.196C40.2667 7.196 39.716 7.084 39.212 6.86C38.708 6.636 38.3067 6.328 38.008 5.936C37.728 5.544 37.588 5.11467 37.588 4.648C37.588 3.95733 37.9054 3.36 38.54 2.856C39.1747 2.352 39.94 2.1 40.836 2.1C41.7507 2.1 42.5254 2.352 43.16 2.856C43.7947 3.36 44.112 3.96667 44.112 4.676C44.112 5.36667 43.7947 5.964 43.16 6.468C42.5254 6.95333 41.76 7.196 40.864 7.196ZM54.0011 7.392C55.7184 7.392 57.1837 8.064 58.3971 9.408C59.6291 10.752 60.2451 12.3667 60.2451 14.252C60.2451 16.1373 59.6664 17.7147 58.5091 18.984C57.3704 20.2533 55.9331 20.9253 54.1971 21C53.9917 21.0187 53.7864 21.0187 53.5811 21C53.3757 21 53.1891 20.9907 53.0211 20.972C52.8717 20.9347 52.7037 20.8973 52.5171 20.86C52.3491 20.804 52.2091 20.7573 52.0971 20.72C51.9851 20.6827 51.8544 20.6267 51.7051 20.552C51.5557 20.4773 51.4437 20.4307 51.3691 20.412C51.3131 20.3747 51.2197 20.328 51.0891 20.272C50.9771 20.1973 50.9211 20.16 50.9211 20.16C50.8651 20.1973 50.7904 20.244 50.6971 20.3C50.6224 20.3373 50.4357 20.4213 50.1371 20.552C49.8384 20.664 49.5211 20.7573 49.1851 20.832C48.8491 20.9067 48.4011 20.944 47.8411 20.944C47.2997 20.9253 46.7304 20.86 46.1331 20.748C45.5171 20.6173 45.2091 20.3 45.2091 19.796V19.712C45.4704 19.712 45.6851 19.628 45.8531 19.46C46.0397 19.2733 46.1331 19.0493 46.1331 18.788V4.62C46.1144 4.284 46.0491 3.976 45.9371 3.696C45.8251 3.416 45.7037 3.21067 45.5731 3.08C45.4611 2.94933 45.3491 2.81867 45.2371 2.688C45.1251 2.55733 45.0597 2.47333 45.0411 2.436C45.0224 2.38 45.0691 2.296 45.1811 2.184C46.9544 2.016 48.1771 2.06267 48.8491 2.324C49.7264 2.64133 50.3331 3.11733 50.6691 3.752C51.0237 4.368 51.2011 5.24533 51.2011 6.384V8.148C52.0784 7.644 53.0117 7.392 54.0011 7.392ZM53.6931 19.684C54.5704 19.684 55.2331 19.1053 55.6811 17.948C56.1477 16.772 56.2784 15.4187 56.0731 13.888C55.9424 12.8987 55.6624 11.9933 55.2331 11.172C54.8224 10.3507 54.3464 9.72533 53.8051 9.296C53.2637 8.848 52.7411 8.652 52.2371 8.708C51.8451 8.764 51.4997 8.96933 51.2011 9.324V17.808C51.8731 19.04 52.7037 19.6653 53.6931 19.684ZM69.5597 7.392C71.277 7.392 72.7423 8.064 73.9557 9.408C75.1877 10.752 75.8037 12.3667 75.8037 14.252C75.8037 16.1373 75.225 17.7147 74.0677 18.984C72.929 20.2533 71.4917 20.9253 69.7557 21C69.5503 21.0187 69.345 21.0187 69.1397 21C68.9343 21 68.7477 20.9907 68.5797 20.972C68.4303 20.9347 68.2623 20.8973 68.0757 20.86C67.9077 20.804 67.7677 20.7573 67.6557 20.72C67.5437 20.6827 67.413 20.6267 67.2637 20.552C67.1143 20.4773 67.0023 20.4307 66.9277 20.412C66.8717 20.3747 66.7783 20.328 66.6477 20.272C66.5357 20.1973 66.4797 20.16 66.4797 20.16C66.4237 20.1973 66.349 20.244 66.2557 20.3C66.181 20.3373 65.9943 20.4213 65.6957 20.552C65.397 20.664 65.0797 20.7573 64.7437 20.832C64.4077 20.9067 63.9597 20.944 63.3997 20.944C62.8583 20.9253 62.289 20.86 61.6917 20.748C61.0757 20.6173 60.7677 20.3 60.7677 19.796V19.712C61.029 19.712 61.2437 19.628 61.4117 19.46C61.5983 19.2733 61.6917 19.0493 61.6917 18.788V4.62C61.673 4.284 61.6077 3.976 61.4957 3.696C61.3837 3.416 61.2623 3.21067 61.1317 3.08C61.0197 2.94933 60.9077 2.81867 60.7957 2.688C60.6837 2.55733 60.6183 2.47333 60.5997 2.436C60.581 2.38 60.6277 2.296 60.7397 2.184C62.513 2.016 63.7357 2.06267 64.4077 2.324C65.285 2.64133 65.8917 3.11733 66.2277 3.752C66.5823 4.368 66.7597 5.24533 66.7597 6.384V8.148C67.637 7.644 68.5703 7.392 69.5597 7.392ZM69.2517 19.684C70.129 19.684 70.7917 19.1053 71.2397 17.948C71.7063 16.772 71.837 15.4187 71.6317 13.888C71.501 12.8987 71.221 11.9933 70.7917 11.172C70.381 10.3507 69.905 9.72533 69.3637 9.296C68.8223 8.848 68.2997 8.652 67.7957 8.708C67.4037 8.764 67.0583 8.96933 66.7597 9.324V17.808C67.4317 19.04 68.2623 19.6653 69.2517 19.684ZM83.3543 19.74C83.4663 19.74 83.5223 19.796 83.5223 19.908V20.132C83.5223 20.356 83.4383 20.552 83.2703 20.72C83.1209 20.8693 82.9343 20.944 82.7103 20.944H77.1383C76.9143 20.944 76.7183 20.8693 76.5503 20.72C76.4009 20.552 76.3263 20.356 76.3263 20.132V19.908C76.3263 19.796 76.3823 19.74 76.4943 19.74C76.6436 19.74 76.7836 19.7027 76.9143 19.628C77.0449 19.5533 77.1476 19.4507 77.2223 19.32C77.2969 19.1893 77.3343 19.0493 77.3343 18.9V8.764H77.3063V4.564C77.2689 3.79867 76.7183 3.21067 75.6542 2.8C75.4862 2.72533 75.5236 2.604 75.7662 2.436C75.8036 2.39867 75.8409 2.38 75.8782 2.38C76.0836 2.324 76.3543 2.268 76.6903 2.212C77.0449 2.13733 77.6329 2.09067 78.4543 2.072C79.2756 2.05333 79.9476 2.156 80.4703 2.38C80.9369 2.56667 81.3196 2.83733 81.6183 3.192C81.9169 3.528 82.1223 3.892 82.2343 4.284C82.3463 4.65733 82.4209 4.956 82.4583 5.18C82.4956 5.38533 82.5143 5.59067 82.5143 5.796V6.524V18.9C82.5143 19.124 82.5889 19.32 82.7383 19.488C82.9063 19.656 83.1116 19.74 83.3543 19.74ZM96.8013 15.876C96.9133 15.8947 97.0066 15.9507 97.0813 16.044C97.1559 16.1373 97.1933 16.24 97.1933 16.352C97.1373 16.8 97.0346 17.2293 96.8853 17.64C96.6053 18.368 96.1759 18.9933 95.5973 19.516C95.0186 20.0387 94.3466 20.4213 93.5813 20.664C92.8533 20.9067 92.0973 21.028 91.3133 21.028C89.3346 21.028 87.6453 20.3373 86.2453 18.956C84.8639 17.5747 84.1733 15.904 84.1733 13.944C84.1733 13.552 84.2013 13.16 84.2573 12.768C84.4439 11.6667 84.8639 10.668 85.5173 9.772C86.1893 8.85733 87.0293 8.148 88.0373 7.644C89.0639 7.12133 90.1559 6.86 91.3133 6.86C92.5266 6.86 93.6653 7.14933 94.7293 7.728C95.5319 8.15733 96.1106 8.71733 96.4653 9.408C96.7639 9.94933 96.9226 10.5093 96.9413 11.088C96.9599 11.648 96.7919 12.1333 96.4373 12.544C96.0826 12.936 95.5506 13.132 94.8413 13.132H87.7573C87.8319 13.636 87.9626 14.1027 88.1493 14.532C88.7093 15.8387 89.6239 16.8467 90.8933 17.556C92.1813 18.2653 93.3386 18.424 94.3653 18.032C95.1866 17.7147 95.8026 17.136 96.2133 16.296C96.2319 16.2213 96.2599 16.1653 96.2973 16.128C96.3346 16.072 96.3719 16.0347 96.4093 16.016C96.4466 15.9787 96.4839 15.9507 96.5213 15.932C96.5586 15.8947 96.5866 15.876 96.6053 15.876C96.6426 15.876 96.6706 15.876 96.6893 15.876C96.7266 15.8573 96.7546 15.848 96.7733 15.848L96.8013 15.876ZM89.1853 8.876C88.6626 9.28667 88.2893 9.72533 88.0653 10.192C87.8599 10.64 87.7293 11.1347 87.6733 11.676H93.5813C93.8986 11.676 94.1413 11.5453 94.3093 11.284C94.4773 11.0227 94.5053 10.7333 94.3933 10.416C94.1319 9.66933 93.6839 9.1 93.0493 8.708C92.4333 8.29733 91.7146 8.12 90.8933 8.176C90.2773 8.21333 89.7079 8.44667 89.1853 8.876Z" fill="white"/>
</svg>
