<svg width="34" height="40" viewBox="0 0 34 40" fill="none" xmlns="http://www.w3.org/2000/svg">
<path d="M32.2648 3.29774C32.0324 3.10973 31.7607 2.97619 31.4699 2.90695C31.1791 2.8377 30.8765 2.83452 30.5843 2.89762C28.4465 3.34564 26.2396 3.35135 24.0995 2.91439C21.9594 2.47743 19.9314 1.60704 18.1404 0.356823C17.8055 0.124495 17.4076 0 17 0C16.5924 0 16.1945 0.124495 15.8596 0.356823C14.0686 1.60704 12.0406 2.47743 9.90051 2.91439C7.76043 3.35135 5.55355 3.34564 3.41575 2.89762C3.12353 2.83452 2.82089 2.8377 2.53007 2.90695C2.23925 2.97619 1.96765 3.10973 1.73522 3.29774C1.50311 3.48604 1.31613 3.72395 1.18804 3.99399C1.05994 4.26403 0.993975 4.55935 0.994991 4.85823V19.7629C0.993213 22.6313 1.67675 25.4586 2.98869 28.0094C4.30062 30.5602 6.20298 32.7606 8.53735 34.4275L15.8396 39.6291C16.1785 39.8704 16.5841 40 17 40C17.4159 40 17.8215 39.8704 18.1604 39.6291L25.4626 34.4275C27.797 32.7606 29.6994 30.5602 31.0113 28.0094C32.3232 25.4586 33.0068 22.6313 33.005 19.7629V4.85823C33.006 4.55935 32.9401 4.26403 32.812 3.99399C32.6839 3.72395 32.4969 3.48604 32.2648 3.29774ZM29.0038 19.7629C29.0053 21.9931 28.4742 24.1914 27.4546 26.1749C26.435 28.1584 24.9564 29.8698 23.1419 31.1665L17 35.5478L10.8581 31.1665C9.04358 29.8698 7.56502 28.1584 6.54543 26.1749C5.52584 24.1914 4.99471 21.9931 4.99624 19.7629V7.15895C9.19041 7.51793 13.391 6.5448 17 4.37808C20.609 6.5448 24.8096 7.51793 29.0038 7.15895V19.7629ZM20.081 15.1815L14.6993 20.5832L12.9187 18.7826C12.542 18.4059 12.031 18.1942 11.4983 18.1942C10.9655 18.1942 10.4546 18.4059 10.0778 18.7826C9.70111 19.1593 9.48947 19.6703 9.48947 20.203C9.48947 20.7358 9.70111 21.2468 10.0778 21.6235L13.2788 24.8245C13.4648 25.012 13.6861 25.1608 13.9299 25.2624C14.1737 25.364 14.4352 25.4163 14.6993 25.4163C14.9634 25.4163 15.2249 25.364 15.4687 25.2624C15.7125 25.1608 15.9337 25.012 16.1197 24.8245L23.0019 18.0023C23.3786 17.6256 23.5902 17.1147 23.5902 16.5819C23.5902 16.0491 23.3786 15.5382 23.0019 15.1615C22.6252 14.7847 22.1142 14.5731 21.5814 14.5731C21.0487 14.5731 20.5377 14.7847 20.161 15.1615L20.081 15.1815Z" fill="#C43B7D"/>
</svg>
