<svg width="40" height="22" viewBox="0 0 40 22" fill="none" xmlns="http://www.w3.org/2000/svg">
<path d="M39.4087 1.58546C39.2229 1.39811 39.0019 1.24941 38.7583 1.14793C38.5147 1.04645 38.2534 0.994202 37.9896 0.994202C37.7257 0.994202 37.4644 1.04645 37.2209 1.14793C36.9773 1.24941 36.7562 1.39811 36.5704 1.58546L23.9977 14.1782L15.4227 5.58314C15.2368 5.39579 15.0158 5.24709 14.7722 5.14561C14.5286 5.04413 14.2673 4.99188 14.0035 4.99188C13.7396 4.99188 13.4783 5.04413 13.2348 5.14561C12.9912 5.24709 12.7701 5.39579 12.5843 5.58314L0.591254 17.5762C0.403906 17.762 0.255203 17.9831 0.153725 18.2267C0.0522462 18.4702 0 18.7315 0 18.9954C0 19.2592 0.0522462 19.5205 0.153725 19.7641C0.255203 20.0076 0.403906 20.2287 0.591254 20.4145C0.777072 20.6019 0.998146 20.7506 1.24172 20.8521C1.4853 20.9535 1.74656 21.0058 2.01043 21.0058C2.2743 21.0058 2.53556 20.9535 2.77914 20.8521C3.02272 20.7506 3.24379 20.6019 3.42961 20.4145L14.0035 9.82068L22.5785 18.4157C22.7643 18.603 22.9854 18.7517 23.229 18.8532C23.4726 18.9547 23.7338 19.007 23.9977 19.007C24.2616 19.007 24.5228 18.9547 24.7664 18.8532C25.01 18.7517 25.231 18.603 25.4169 18.4157L39.4087 4.42381C39.5961 4.23799 39.7448 4.01692 39.8463 3.77334C39.9478 3.52976 40 3.2685 40 3.00463C40 2.74076 39.9478 2.4795 39.8463 2.23592C39.7448 1.99235 39.5961 1.77127 39.4087 1.58546Z" fill="#3ABD9E"/>
</svg>
