<svg width="40" height="40" viewBox="0 0 40 40" fill="none" xmlns="http://www.w3.org/2000/svg">
<path d="M33.9999 0H6.00005C4.40876 0 2.88264 0.632139 1.75743 1.75735C0.632215 2.88257 7.62939e-05 4.40868 7.62939e-05 5.99998V25.9999C7.62939e-05 27.5912 0.632215 29.1173 1.75743 30.2425C2.88264 31.3677 4.40876 31.9999 6.00005 31.9999H11.28L10.12 33.9999C9.76896 34.6079 9.58414 35.2977 9.58414 35.9999C9.58414 36.702 9.76896 37.3918 10.12 37.9998C10.4741 38.6132 10.9847 39.1216 11.5997 39.473C12.2146 39.8244 12.9118 40.0062 13.62 39.9998H26.54C27.2414 39.9991 27.9303 39.814 28.5376 39.4629C29.1449 39.1119 29.6492 38.6073 30 37.9998C30.351 37.3918 30.5359 36.702 30.5359 35.9999C30.5359 35.2977 30.351 34.6079 30 33.9999L28.82 31.9999H33.9999C35.5912 31.9999 37.1174 31.3677 38.2426 30.2425C39.3678 29.1173 39.9999 27.5912 39.9999 25.9999V5.99998C39.9999 4.40868 39.3678 2.88257 38.2426 1.75735C37.1174 0.632139 35.5912 0 33.9999 0ZM13.54 35.9999L16 31.9999H24L26.4 35.9999H13.54ZM35.9999 25.9999C35.9999 26.5303 35.7892 27.039 35.4142 27.4141C35.0391 27.7892 34.5304 27.9999 33.9999 27.9999H6.00005C5.46962 27.9999 4.96092 27.7892 4.58584 27.4141C4.21077 27.039 4.00006 26.5303 4.00006 25.9999V23.9999H35.9999V25.9999ZM35.9999 19.9999H4.00006V5.99998C4.00006 5.46955 4.21077 4.96084 4.58584 4.58577C4.96092 4.2107 5.46962 3.99998 6.00005 3.99998H33.9999C34.5304 3.99998 35.0391 4.2107 35.4142 4.58577C35.7892 4.96084 35.9999 5.46955 35.9999 5.99998V19.9999Z" fill="#5F3BC4"/>
</svg>
