<svg width="32" height="32" viewBox="0 0 32 32" fill="none" xmlns="http://www.w3.org/2000/svg">
<path fill-rule="evenodd" clip-rule="evenodd" d="M10.1343 2.90906H21.8656C25.8498 2.90906 29.0912 6.15039 29.091 10.1343V21.8656C29.091 25.8495 25.8498 29.0909 21.8656 29.0909H10.1343C6.15035 29.0909 2.90918 25.8497 2.90918 21.8656V10.1343C2.90918 6.15039 6.15035 2.90906 10.1343 2.90906ZM21.8658 26.7679C24.5689 26.7679 26.7682 24.5688 26.7682 21.8656H26.768V10.1343C26.768 7.43128 24.5688 5.23204 21.8656 5.23204H10.1343C7.43124 5.23204 5.23216 7.43128 5.23216 10.1343V21.8656C5.23216 24.5688 7.43124 26.7681 10.1343 26.7679H21.8658ZM9.14294 16.0001C9.14294 12.219 12.219 9.14282 16.0001 9.14282C19.7812 9.14282 22.8572 12.219 22.8572 16.0001C22.8572 19.7811 19.7812 22.8571 16.0001 22.8571C12.219 22.8571 9.14294 19.7811 9.14294 16.0001ZM11.5041 16C11.5041 18.479 13.5211 20.4958 16.0001 20.4958C18.4791 20.4958 20.4961 18.479 20.4961 16C20.4961 13.5207 18.4793 11.5038 16.0001 11.5038C13.5209 11.5038 11.5041 13.5207 11.5041 16Z" fill="#BBC3CF"/>
<mask id="mask0_47_882" style="mask-type:luminance" maskUnits="userSpaceOnUse" x="2" y="2" width="28" height="28">
<path fill-rule="evenodd" clip-rule="evenodd" d="M10.1343 2.90906H21.8656C25.8498 2.90906 29.0912 6.15039 29.091 10.1343V21.8656C29.091 25.8495 25.8498 29.0909 21.8656 29.0909H10.1343C6.15035 29.0909 2.90918 25.8497 2.90918 21.8656V10.1343C2.90918 6.15039 6.15035 2.90906 10.1343 2.90906ZM21.8658 26.7679C24.5689 26.7679 26.7682 24.5688 26.7682 21.8656H26.768V10.1343C26.768 7.43128 24.5688 5.23204 21.8656 5.23204H10.1343C7.43124 5.23204 5.23216 7.43128 5.23216 10.1343V21.8656C5.23216 24.5688 7.43124 26.7681 10.1343 26.7679H21.8658ZM9.14294 16.0001C9.14294 12.219 12.219 9.14282 16.0001 9.14282C19.7812 9.14282 22.8572 12.219 22.8572 16.0001C22.8572 19.7811 19.7812 22.8571 16.0001 22.8571C12.219 22.8571 9.14294 19.7811 9.14294 16.0001ZM11.5041 16C11.5041 18.479 13.5211 20.4958 16.0001 20.4958C18.4791 20.4958 20.4961 18.479 20.4961 16C20.4961 13.5207 18.4793 11.5038 16.0001 11.5038C13.5209 11.5038 11.5041 13.5207 11.5041 16Z" fill="white"/>
</mask>
<g mask="url(#mask0_47_882)">
</g>
</svg>
