<svg width="40" height="40" viewBox="0 0 40 40" fill="none" xmlns="http://www.w3.org/2000/svg">
<path d="M21.183 27.1487L20.933 26.9487C20.8401 26.8856 20.7392 26.8352 20.633 26.7987L20.333 26.6654C20.0627 26.6089 19.7826 26.6204 19.5179 26.6989C19.2531 26.7775 19.0121 26.9206 18.8163 27.1154C18.6691 27.2774 18.5507 27.4634 18.4663 27.6654C18.3402 27.969 18.3067 28.3032 18.3701 28.6259C18.4335 28.9485 18.5909 29.2452 18.8225 29.4787C19.0541 29.7121 19.3496 29.8717 19.6718 29.9376C19.9939 30.0034 20.3284 29.9725 20.633 29.8487C20.8322 29.7521 21.0172 29.6287 21.183 29.482C21.4143 29.2477 21.5709 28.95 21.6332 28.6267C21.6955 28.3034 21.6606 27.9689 21.533 27.6654C21.4499 27.4726 21.3312 27.2973 21.183 27.1487V27.1487ZM26.6663 3.33203H13.333C12.0069 3.33203 10.7352 3.85882 9.79747 4.7965C8.85979 5.73418 8.33301 7.00595 8.33301 8.33203V31.6654C8.33301 32.9914 8.85979 34.2632 9.79747 35.2009C10.7352 36.1386 12.0069 36.6654 13.333 36.6654H26.6663C27.9924 36.6654 29.2642 36.1386 30.2019 35.2009C31.1396 34.2632 31.6663 32.9914 31.6663 31.6654V8.33203C31.6663 7.00595 31.1396 5.73418 30.2019 4.7965C29.2642 3.85882 27.9924 3.33203 26.6663 3.33203ZM28.333 31.6654C28.333 32.1074 28.1574 32.5313 27.8449 32.8439C27.5323 33.1564 27.1084 33.332 26.6663 33.332H13.333C12.891 33.332 12.4671 33.1564 12.1545 32.8439C11.8419 32.5313 11.6663 32.1074 11.6663 31.6654V8.33203C11.6663 7.89 11.8419 7.46608 12.1545 7.15352C12.4671 6.84096 12.891 6.66536 13.333 6.66536H26.6663C27.1084 6.66536 27.5323 6.84096 27.8449 7.15352C28.1574 7.46608 28.333 7.89 28.333 8.33203V31.6654Z" fill="#3ABD9E"/>
</svg>
