<svg width="56" height="56" viewBox="0 0 56 56" fill="none" xmlns="http://www.w3.org/2000/svg">
<rect width="56" height="56" rx="15" fill="#B718EC"/>
<path d="M36.2337 25.06C36.2337 25.06 36.2337 25.06 36.2337 25.0162C35.6172 23.3329 34.4985 21.8796 33.029 20.8529C31.5595 19.8261 29.8101 19.2755 28.0175 19.2755C26.2248 19.2755 24.4754 19.8261 23.0059 20.8529C21.5364 21.8796 20.4178 23.3329 19.8012 25.0162C19.8012 25.0162 19.8012 25.0162 19.8012 25.06C19.1127 26.9595 19.1127 29.0405 19.8012 30.94C19.8012 30.94 19.8012 30.94 19.8012 30.9837C20.4178 32.667 21.5364 34.1204 23.0059 35.1471C24.4754 36.1739 26.2248 36.7245 28.0175 36.7245C29.8101 36.7245 31.5595 36.1739 33.029 35.1471C34.4985 34.1204 35.6172 32.667 36.2337 30.9837C36.2337 30.9837 36.2337 30.9837 36.2337 30.94C36.9223 29.0405 36.9223 26.9595 36.2337 25.06V25.06ZM21.2275 29.75C20.9241 28.6031 20.9241 27.3969 21.2275 26.25H22.855C22.715 27.4125 22.715 28.5875 22.855 29.75H21.2275ZM21.945 31.5H23.17C23.3754 32.2804 23.6689 33.0348 24.045 33.7487C23.1869 33.1642 22.4695 32.396 21.945 31.5ZM23.17 24.5H21.945C22.462 23.6067 23.1702 22.8388 24.0187 22.2512C23.6517 22.9663 23.367 23.7207 23.17 24.5V24.5ZM27.125 34.7375C26.0503 33.9488 25.2955 32.7996 24.9987 31.5H27.125V34.7375ZM27.125 29.75H24.6225C24.4592 28.589 24.4592 27.4109 24.6225 26.25H27.125V29.75ZM27.125 24.5H24.9987C25.2955 23.2004 26.0503 22.0511 27.125 21.2625V24.5ZM34.055 24.5H32.83C32.6246 23.7196 32.3311 22.9652 31.955 22.2512C32.8131 22.8358 33.5304 23.6039 34.055 24.5ZM28.875 21.2625C29.9497 22.0511 30.7045 23.2004 31.0012 24.5H28.875V21.2625ZM28.875 34.7375V31.5H31.0012C30.7045 32.7996 29.9497 33.9488 28.875 34.7375V34.7375ZM31.3775 29.75H28.875V26.25H31.3775C31.5408 27.4109 31.5408 28.589 31.3775 29.75ZM31.9812 33.7487C32.3573 33.0348 32.6509 32.2804 32.8562 31.5H34.0812C33.5567 32.396 32.8394 33.1642 31.9812 33.7487ZM34.7725 29.75H33.145C33.2162 29.1694 33.2512 28.5849 33.25 28C33.251 27.4151 33.2159 26.8306 33.145 26.25H34.7725C35.0759 27.3969 35.0759 28.6031 34.7725 29.75Z" fill="white"/>
</svg>
