<svg width="56" height="56" viewBox="0 0 56 56" fill="none" xmlns="http://www.w3.org/2000/svg">
<rect width="56" height="56" rx="15" fill="#B718EC"/>
<path d="M24.5 32.375C24.3269 32.375 24.1578 32.4263 24.0139 32.5225C23.87 32.6186 23.7578 32.7553 23.6916 32.9152C23.6254 33.075 23.6081 33.251 23.6418 33.4207C23.6756 33.5904 23.7589 33.7463 23.8813 33.8687C24.0037 33.9911 24.1596 34.0744 24.3293 34.1082C24.499 34.1419 24.675 34.1246 24.8348 34.0584C24.9947 33.9922 25.1314 33.88 25.2275 33.7361C25.3237 33.5922 25.375 33.4231 25.375 33.25C25.375 33.0179 25.2828 32.7954 25.1187 32.6313C24.9546 32.4672 24.7321 32.375 24.5 32.375V32.375ZM24.5 27.125C24.3269 27.125 24.1578 27.1763 24.0139 27.2725C23.87 27.3686 23.7578 27.5053 23.6916 27.6652C23.6254 27.825 23.6081 28.001 23.6418 28.1707C23.6756 28.3404 23.7589 28.4963 23.8813 28.6187C24.0037 28.7411 24.1596 28.8244 24.3293 28.8582C24.499 28.8919 24.675 28.8746 24.8348 28.8084C24.9947 28.7422 25.1314 28.63 25.2275 28.4861C25.3237 28.3422 25.375 28.1731 25.375 28C25.375 27.7679 25.2828 27.5454 25.1187 27.3813C24.9546 27.2172 24.7321 27.125 24.5 27.125V27.125ZM24.5 21.875C24.3269 21.875 24.1578 21.9263 24.0139 22.0225C23.87 22.1186 23.7578 22.2553 23.6916 22.4152C23.6254 22.575 23.6081 22.751 23.6418 22.9207C23.6756 23.0904 23.7589 23.2463 23.8813 23.3687C24.0037 23.4911 24.1596 23.5744 24.3293 23.6082C24.499 23.6419 24.675 23.6246 24.8348 23.5584C24.9947 23.4922 25.1314 23.38 25.2275 23.2361C25.3237 23.0922 25.375 22.9231 25.375 22.75C25.375 22.5179 25.2828 22.2954 25.1187 22.1313C24.9546 21.9672 24.7321 21.875 24.5 21.875V21.875ZM35 21.875C35 21.1788 34.7234 20.5111 34.2312 20.0188C33.7389 19.5266 33.0712 19.25 32.375 19.25H23.625C22.9288 19.25 22.2611 19.5266 21.7688 20.0188C21.2766 20.5111 21 21.1788 21 21.875V23.625C21.0039 24.2725 21.2469 24.8958 21.6825 25.375C21.2469 25.8542 21.0039 26.4775 21 27.125V28.875C21.0039 29.5225 21.2469 30.1458 21.6825 30.625C21.2469 31.1042 21.0039 31.7275 21 32.375V34.125C21 34.8212 21.2766 35.4889 21.7688 35.9812C22.2611 36.4734 22.9288 36.75 23.625 36.75H32.375C33.0712 36.75 33.7389 36.4734 34.2312 35.9812C34.7234 35.4889 35 34.8212 35 34.125V32.375C34.9961 31.7275 34.7531 31.1042 34.3175 30.625C34.7531 30.1458 34.9961 29.5225 35 28.875V27.125C34.9961 26.4775 34.7531 25.8542 34.3175 25.375C34.7531 24.8958 34.9961 24.2725 35 23.625V21.875ZM33.25 34.125C33.25 34.3571 33.1578 34.5796 32.9937 34.7437C32.8296 34.9078 32.6071 35 32.375 35H23.625C23.3929 35 23.1704 34.9078 23.0063 34.7437C22.8422 34.5796 22.75 34.3571 22.75 34.125V32.375C22.75 32.1429 22.8422 31.9204 23.0063 31.7563C23.1704 31.5922 23.3929 31.5 23.625 31.5H32.375C32.6071 31.5 32.8296 31.5922 32.9937 31.7563C33.1578 31.9204 33.25 32.1429 33.25 32.375V34.125ZM33.25 28.875C33.25 29.1071 33.1578 29.3296 32.9937 29.4937C32.8296 29.6578 32.6071 29.75 32.375 29.75H23.625C23.3929 29.75 23.1704 29.6578 23.0063 29.4937C22.8422 29.3296 22.75 29.1071 22.75 28.875V27.125C22.75 26.8929 22.8422 26.6704 23.0063 26.5063C23.1704 26.3422 23.3929 26.25 23.625 26.25H32.375C32.6071 26.25 32.8296 26.3422 32.9937 26.5063C33.1578 26.6704 33.25 26.8929 33.25 27.125V28.875ZM33.25 23.625C33.25 23.8571 33.1578 24.0796 32.9937 24.2437C32.8296 24.4078 32.6071 24.5 32.375 24.5H23.625C23.3929 24.5 23.1704 24.4078 23.0063 24.2437C22.8422 24.0796 22.75 23.8571 22.75 23.625V21.875C22.75 21.6429 22.8422 21.4204 23.0063 21.2563C23.1704 21.0922 23.3929 21 23.625 21H32.375C32.6071 21 32.8296 21.0922 32.9937 21.2563C33.1578 21.4204 33.25 21.6429 33.25 21.875V23.625Z" fill="white"/>
</svg>
