<svg width="40" height="40" viewBox="0 0 40 40" fill="none" xmlns="http://www.w3.org/2000/svg">
<path d="M24.1503 18.0999C24.7085 17.3315 25.0433 16.4237 25.1178 15.4769C25.1922 14.53 25.0034 13.5811 24.5722 12.7349C24.141 11.8887 23.4842 11.1782 22.6744 10.6819C21.8646 10.1857 20.9334 9.92309 19.9836 9.92309C19.0339 9.92309 18.1026 10.1857 17.2928 10.6819C16.483 11.1782 15.8262 11.8887 15.395 12.7349C14.9638 13.5811 14.775 14.53 14.8495 15.4769C14.9239 16.4237 15.2588 17.3315 15.817 18.0999C15.1089 18.5511 14.4785 19.1139 13.9503 19.7665C13.8124 19.9449 13.711 20.1487 13.6519 20.3663C13.5927 20.5838 13.577 20.8109 13.6057 21.0346C13.6343 21.2582 13.7067 21.474 13.8187 21.6696C13.9308 21.8653 14.0802 22.037 14.2586 22.1749C14.437 22.3128 14.6408 22.4142 14.8584 22.4733C15.0759 22.5324 15.303 22.5481 15.5266 22.5195C15.7503 22.4908 15.9661 22.4184 16.1617 22.3064C16.3574 22.1944 16.5291 22.0449 16.667 21.8665C17.074 21.3492 17.5927 20.9305 18.1844 20.6419C18.7761 20.3533 19.4253 20.2022 20.0836 20.1999V20.1999C20.7419 20.2022 21.3912 20.3533 21.9828 20.6419C22.5745 20.9305 23.0933 21.3492 23.5003 21.8665C23.6572 22.0599 23.8554 22.2157 24.0803 22.3224C24.3053 22.4291 24.5513 22.484 24.8003 22.4832C25.1127 22.4818 25.4185 22.3925 25.6826 22.2257C25.9468 22.0588 26.1588 21.8211 26.2943 21.5396C26.4298 21.2581 26.4835 20.9441 26.4492 20.6336C26.4149 20.323 26.294 20.0283 26.1003 19.7832C25.5483 19.1177 24.8893 18.5488 24.1503 18.0999V18.0999ZM20.0003 16.8832C19.6439 16.883 19.2954 16.7779 18.9983 16.5811C18.7011 16.3842 18.4685 16.1044 18.3292 15.7763C18.19 15.4482 18.1503 15.0864 18.2152 14.7359C18.28 14.3855 18.4466 14.0618 18.694 13.8053C18.9414 13.5488 19.2589 13.3707 19.6068 13.2933C19.9547 13.2158 20.3177 13.2424 20.6505 13.3698C20.9834 13.4971 21.2715 13.7195 21.4789 14.0094C21.6863 14.2992 21.8039 14.6437 21.817 14.9999C21.8259 15.244 21.7856 15.4874 21.6983 15.7156C21.611 15.9437 21.4786 16.1519 21.309 16.3278C21.1394 16.5036 20.9361 16.6434 20.7112 16.7388C20.4864 16.8343 20.2446 16.8834 20.0003 16.8832V16.8832ZM34.1003 16.0499C33.8663 13.6147 33.0057 11.2817 31.6023 9.27789C30.1988 7.27412 28.3005 5.66791 26.0919 4.61569C23.8834 3.56346 21.4401 3.10106 18.9998 3.27354C16.5595 3.44601 14.2055 4.24746 12.167 5.59986C10.4156 6.77094 8.94538 8.31536 7.86186 10.1222C6.77835 11.929 6.10845 13.9534 5.90029 16.0499C5.69609 18.1326 5.95808 20.2347 6.66724 22.2037C7.3764 24.1726 8.51495 25.959 10.0003 27.4332L18.8336 36.2832C18.9886 36.4394 19.1729 36.5634 19.376 36.648C19.5791 36.7326 19.7969 36.7762 20.017 36.7762C20.237 36.7762 20.4548 36.7326 20.6579 36.648C20.861 36.5634 21.0454 36.4394 21.2003 36.2832L30.0003 27.4332C31.4856 25.959 32.6242 24.1726 33.3333 22.2037C34.0425 20.2347 34.3045 18.1326 34.1003 16.0499V16.0499ZM27.667 25.0832L20.0003 32.7499L12.3336 25.0832C11.2038 23.9533 10.3383 22.5871 9.7994 21.0828C9.26051 19.5785 9.0616 17.9735 9.21696 16.3832C9.37332 14.7684 9.88656 13.2085 10.7196 11.8163C11.5526 10.4241 12.6846 9.23438 14.0336 8.3332C15.8019 7.15859 17.8775 6.53202 20.0003 6.53202C22.1231 6.53202 24.1987 7.15859 25.967 8.3332C27.3119 9.23089 28.4414 10.4153 29.2742 11.8014C30.107 13.1875 30.6225 14.7409 30.7836 16.3499C30.944 17.9456 30.7476 19.557 30.2086 21.0674C29.6696 22.5779 28.8014 23.9496 27.667 25.0832V25.0832Z" fill="#C43B7D"/>
</svg>
