<svg width="68" height="68" viewBox="0 0 68 68" fill="none" xmlns="http://www.w3.org/2000/svg">
<g style="mix-blend-mode:luminosity">
<path fill-rule="evenodd" clip-rule="evenodd" d="M29.4312 0C27.8233 0.616135 26.5063 1.68306 25.4803 3.20078C23.7531 5.75571 22.8896 9.52939 22.8896 14.5219C22.8896 19.5015 23.7531 23.2686 25.4803 25.8235C27.2075 28.3785 29.7461 29.6559 33.0962 29.6559C33.2135 29.6559 33.3341 29.6461 33.4579 29.6266C33.5818 29.607 33.7349 29.5777 33.9174 29.5386L38.2777 34.5833L42.2274 31.6503L38.5906 28.0917C40.1548 27.101 41.3475 25.4488 42.1688 23.135C42.99 20.8212 43.4006 17.9502 43.4006 14.5219C43.4006 9.52939 42.537 5.75571 40.8098 3.20078C39.7838 1.68306 38.4646 0.616135 36.8521 0L48.9819 4.63684e-08V18.3152C48.9819 22.278 49.7738 25.1587 51.3576 26.9576C52.9414 28.7565 55.4735 29.6559 58.9539 29.6559C62.4474 29.6559 64.9827 28.7565 66.56 26.9576C67.1506 26.2841 67.6306 25.4589 68 24.4821V38.9586H51.0491V68H45.9784L40.7751 57.6512C40.1624 56.4259 39.6443 55.6014 39.2206 55.1777C38.797 54.7541 38.2984 54.4836 37.7248 54.3663C39.5628 54.1316 40.9706 53.4212 41.9483 52.235C42.9259 51.0488 43.4147 49.452 43.4147 47.4445C43.4147 44.4464 42.5968 42.2826 40.9609 40.953C39.3249 39.6233 36.6299 38.9586 32.8757 38.9586H24.5461V68H19.5497L11.7107 38.9586H4.65208L0.00287065 56.1826C0.000958689 55.9948 0 55.8014 0 55.6022L0 28.5016C0.696451 28.7545 1.40491 28.9665 2.12539 29.1378C3.57884 29.4832 5.029 29.6559 6.47592 29.6559C9.99547 29.6559 12.6253 28.9292 14.3655 27.4758C16.1058 26.0223 16.9759 23.8226 16.9759 20.8766C16.9759 18.7128 16.4219 16.9204 15.3139 15.4996C14.2059 14.0787 12.4787 12.9382 10.1323 12.0778L7.6491 11.1393C5.92843 10.5005 4.79763 9.91722 4.25666 9.38929C3.7157 8.86136 3.44522 8.19331 3.44522 7.38511C3.44522 6.34228 3.81672 5.54062 4.55974 4.9801C5.30275 4.41958 6.37163 4.13932 7.76642 4.13932C9.01781 4.13932 10.2822 4.36744 11.5597 4.82368C12.8372 5.27991 14.0951 5.94471 15.3334 6.81808V1.18683C14.2458 0.691492 13.1494 0.296233 12.044 0.00104312C12.1598 0.000348134 12.2778 4.63684e-08 12.3978 4.63684e-08H29.4312V0ZM54.75 4.63684e-08H55.6022C59.9132 4.63684e-08 61.4764 0.448863 63.0525 1.29174C63.0878 1.3106 63.1229 1.32967 63.1578 1.34893V19.7621C63.1578 21.2221 62.7863 22.3659 62.0433 23.1937C61.3003 24.0214 60.2705 24.4353 58.9539 24.4353C57.6374 24.4353 56.6076 24.0214 55.8646 23.1937C55.1215 22.3659 54.75 21.2221 54.75 19.7621V4.63684e-08V4.63684e-08ZM68 44.0423V50.3384H56.8172V44.0423H68ZM68 55.4221V55.6022C68 59.9132 67.5511 61.4764 66.7083 63.0525C66.7056 63.0574 66.703 63.0624 66.7003 63.0673H56.8172V55.4221H68ZM39.6471 68H30.3143V56.6149H32.1522C33.547 56.6149 34.7593 57.7163 35.7891 59.9193C35.9586 60.2843 36.0954 60.5711 36.1997 60.7796L39.6471 68ZM13.7847 68H12.3978C8.08682 68 6.52355 67.5511 4.94752 66.7083C4.30431 66.3643 3.71759 65.9547 3.19109 65.4831L4.30013 60.9361H12.0235L13.7847 68ZM0 22.9705L0 13.4562C1.12203 14.435 2.87005 15.3768 5.24409 16.2817L8.07927 17.3571C9.06995 17.7351 9.82599 18.2533 10.3474 18.9116C10.8688 19.5699 11.1295 20.3357 11.1295 21.209C11.1295 22.3692 10.7385 23.2719 9.95635 23.9171C9.17423 24.5624 8.07276 24.885 6.6519 24.885C5.24408 24.885 3.81999 24.6178 2.37958 24.0833C1.60068 23.7943 0.807486 23.4234 0 22.9705H0ZM33.1353 4.54993C34.6213 4.54993 35.7033 5.3353 36.3811 6.90607C37.0589 8.47683 37.3979 11.0154 37.3979 14.5219C37.3979 18.0154 37.0589 20.5475 36.3811 22.1183C35.7033 23.689 34.6213 24.4744 33.1353 24.4744C31.6623 24.4744 30.5869 23.689 29.9091 22.1183C29.2312 20.5475 28.8923 18.0154 28.8923 14.5219C28.8923 11.0154 29.2312 8.47683 29.9091 6.90607C30.5869 5.3353 31.6623 4.54993 33.1353 4.54993ZM8.17161 44.2379L10.909 56.1847H5.45375L8.17161 44.2379ZM30.3143 43.8077H33.0321C34.6224 43.8077 35.7565 44.114 36.4343 44.7267C37.1122 45.3393 37.4511 46.3561 37.4511 47.7769C37.4511 49.1978 37.1089 50.2178 36.4246 50.837C35.7402 51.4562 34.6094 51.7657 33.0321 51.7657H30.3143V43.8077Z" fill="#FA4B83"/>
</g>
</svg>
