<svg width="99" height="22" viewBox="0 0 99 22" fill="none" xmlns="http://www.w3.org/2000/svg">
<path d="M17.044 14.336C16.624 12.292 15.084 10.64 13.04 9.996C12.564 9.828 11.78 9.66 11.276 9.548C9.848 9.268 8.588 9.1 7.86 8.372C6.88 7.364 6.404 6.048 6.544 4.984V4.956V4.928C6.6 4.396 6.796 3.948 7.16 3.584C7.356 3.388 7.608 3.22 7.916 3.108C7.944 3.108 7.972 3.08 8 3.08C8.028 3.052 8.084 3.052 8.112 3.052C8.168 3.024 8.224 3.024 8.28 2.996C8.308 2.996 8.364 2.996 8.42 2.968C8.476 2.968 8.532 2.968 8.588 2.968C8.672 2.94 8.728 2.94 8.812 2.94C8.952 2.94 9.092 2.968 9.204 2.968C9.316 2.996 9.428 2.996 9.54 3.024C9.568 3.024 9.596 3.052 9.596 3.052C9.736 3.08 9.848 3.108 9.96 3.136C10.604 3.36 11.22 3.752 11.78 4.312C12.312 4.844 13.152 6.16 13.852 7.728C14.244 8.68 15.756 8.54 16.456 7.476C16.96 6.72 17.212 5.46 16.568 4.48C16.288 4.088 16.092 3.864 15.728 3.556C12.284 0.532 7.02 0.28 3.464 3.08C2.232 4.06 1.56 5.684 1.56 7.28C1.56 7.728 1.616 8.176 1.728 8.624C2.204 10.5 3.604 11.928 5.536 12.544C6.096 12.74 9.232 13.664 10.296 14.084C11.78 14.7 12.564 16.436 12.452 17.64C12.424 17.976 12.34 18.284 12.144 18.564C11.332 19.852 9.176 19.908 7.328 18.76C6.292 18.116 5.144 15.68 5.144 15.652C4.388 14.252 3.688 13.496 2.904 14C1.588 14.84 0.86 16.492 2.456 18.452C2.484 18.452 2.484 18.452 2.484 18.452C4.136 20.244 6.796 21.308 9.512 21.308C10.268 21.308 10.996 21.196 11.696 21.056C13.292 20.664 14.72 19.908 15.84 18.872C16.652 17.92 17.128 16.688 17.128 15.372C17.128 15.008 17.1 14.672 17.044 14.336ZM38.3437 7.112H35.7957C35.4037 7.112 34.9277 7.336 35.1237 7.7C35.3197 8.064 36.4957 8.316 36.2437 8.932L33.7797 16.436L31.9317 12.012C31.5397 10.948 30.8117 9.744 29.8877 9.156C28.9077 8.54 27.6477 8.54 26.8077 8.596C26.4157 8.624 26.0517 8.876 26.2757 9.072C27.5917 10.22 27.7597 11.508 27.7597 11.508L25.7157 16.436L22.7477 9.268C22.4957 8.652 23.3357 8.204 23.5037 7.84C23.6997 7.476 23.5317 7.112 22.8877 7.112H18.1277C17.8477 7.112 17.4557 7.392 17.6237 7.644C17.9597 8.064 18.2397 8.176 18.6877 9.016L23.4477 20.608C23.5317 20.804 23.7557 20.944 23.9797 20.944C23.9797 20.944 24.4277 21 24.7917 20.776C26.1917 19.936 26.7797 18.34 26.8637 18.116C27.3117 16.996 28.6837 13.748 28.6837 13.748C28.6837 13.748 29.7197 16.268 30.0837 17.108C30.3077 17.724 30.9517 19.348 31.9597 20.16C32.7157 20.776 33.2197 20.972 33.4997 20.944C33.7237 20.916 33.8077 20.804 33.8917 20.608L38.2597 8.568C38.3997 8.26 38.8197 7.84 38.8757 7.672C39.0157 7.392 38.6517 7.112 38.3437 7.112ZM45.336 20.216C45.168 19.88 44.328 19.516 44.328 19.068V10.556C44.3 8.288 45.252 8.12 44.832 7.98C43.404 7.448 39.204 8.344 39.148 12.684V19.068C39.148 19.516 38.308 19.88 38.14 20.216C37.944 20.58 38.504 20.972 38.952 20.972H44.524C44.972 20.972 45.532 20.58 45.336 20.216ZM41.836 7.224C43.656 7.224 45.112 6.076 45.112 4.676C45.112 3.248 43.656 2.128 41.836 2.128C40.044 2.128 38.588 3.248 38.588 4.676C38.588 6.076 40.044 7.224 41.836 7.224ZM55.0011 7.42C53.9931 7.42 53.0131 7.672 52.1731 8.148V6.412C52.1731 4.228 51.6411 2.996 49.8211 2.324C48.8131 1.96 46.1811 2.212 46.1811 2.212C45.5651 2.66 47.0211 2.772 47.1331 4.62V18.816C47.1331 19.32 46.7131 19.74 46.2091 19.74V19.824C46.2091 20.328 46.6291 20.664 47.1331 20.748C50.2971 21.42 51.8931 20.16 51.8931 20.16C52.3411 20.412 53.4891 21.112 55.1691 21.028C58.6131 20.832 61.2171 18.06 61.2171 14.252C61.2171 10.472 58.4451 7.42 55.0011 7.42ZM54.6931 19.684C53.7691 19.684 52.8731 19.068 52.1731 17.808V9.352C52.4811 8.988 52.8451 8.792 53.2371 8.736C54.7491 8.512 56.6531 10.864 57.0451 13.888C57.4651 16.912 56.4571 19.712 54.6931 19.684ZM70.5597 7.42C69.5517 7.42 68.5717 7.672 67.7317 8.148V6.412C67.7317 4.228 67.1997 2.996 65.3797 2.324C64.3717 1.96 61.7397 2.212 61.7397 2.212C61.1237 2.66 62.5797 2.772 62.6917 4.62V18.816C62.6917 19.32 62.2717 19.74 61.7677 19.74V19.824C61.7677 20.328 62.1877 20.664 62.6917 20.748C65.8557 21.42 67.4517 20.16 67.4517 20.16C67.8997 20.412 69.0477 21.112 70.7277 21.028C74.1717 20.832 76.7757 18.06 76.7757 14.252C76.7757 10.472 74.0037 7.42 70.5597 7.42ZM70.2517 19.684C69.3277 19.684 68.4317 19.068 67.7317 17.808V9.352C68.0397 8.988 68.4037 8.792 68.7957 8.736C70.3077 8.512 72.2117 10.864 72.6037 13.888C73.0237 16.912 72.0157 19.712 70.2517 19.684ZM84.3263 19.74H84.2982C83.8503 19.74 83.4863 19.376 83.4863 18.928V6.552C83.4583 6.552 83.4583 6.552 83.4583 6.552V5.796C83.4583 5.404 83.4023 3.22 81.4423 2.408C79.6503 1.652 76.8222 2.38 76.8222 2.38C76.6262 2.464 76.4022 2.716 76.5982 2.8C77.3263 3.08 78.1943 3.584 78.2783 4.564V8.792C78.2783 8.792 78.2783 8.792 78.3063 8.792V18.928C78.3063 19.376 77.9143 19.74 77.4663 19.74C77.3543 19.74 77.2983 19.824 77.2983 19.936V20.132C77.2983 20.58 77.6623 20.972 78.1103 20.972H83.6543C84.1303 20.972 84.4943 20.58 84.4943 20.132V19.936C84.4943 19.824 84.4103 19.74 84.3263 19.74ZM97.7733 15.876C97.7733 15.876 97.4093 15.82 97.1853 16.296C96.7933 17.108 96.1773 17.724 95.3653 18.06C93.2933 18.844 90.2693 17.136 89.1493 14.56C88.9533 14.084 88.8133 13.608 88.7293 13.16H95.8413C98.0813 13.16 98.2773 10.976 97.4653 9.408C97.0733 8.68 96.4573 8.148 95.7293 7.728C94.6933 7.196 93.5453 6.86 92.2853 6.86C88.7573 6.86 85.8173 9.436 85.2573 12.796C85.2013 13.16 85.1733 13.552 85.1733 13.972C85.1733 17.864 88.3653 21.056 92.2853 21.056C93.0973 21.056 93.8533 20.916 94.5813 20.692C96.0373 20.188 97.2973 19.152 97.8573 17.668C98.0253 17.248 98.1093 16.828 98.1653 16.38C98.1933 16.128 98.0253 15.932 97.7733 15.876ZM89.0653 10.192C89.4293 9.408 90.5493 8.26 91.8653 8.176C93.5173 8.092 94.8613 8.932 95.3933 10.444C95.5893 11.06 95.1973 11.704 94.5533 11.704H88.6733C88.7013 11.144 88.8413 10.64 89.0653 10.192Z" fill="#000D36"/>
</svg>
