<svg width="1080" height="1080" viewBox="0 0 1080 1080" fill="none" xmlns="http://www.w3.org/2000/svg">
<path d="M654.955 601.472C626.417 613.517 616.934 609.147 576.671 629.109C539.567 647.488 528.656 660.563 466.233 703.274C408.171 743.009 385.007 753.998 373.247 755.694C373.68 755.547 374.113 755.374 374.545 755.201C371.949 753.228 369.518 751.065 367.268 748.711C327.758 707.341 349.642 613.716 418.347 490.748C422.371 490.237 424.006 490.557 426.437 490.955C428.41 491.258 430.911 491.613 435.618 491.596C478.909 491.388 501.113 461.077 569.913 406.744C592.809 388.642 617.704 370.41 650.161 352.299C688.26 331.004 703.594 328.443 710.481 328.365H710.499C760.02 375.1 733.438 473.009 654.955 601.48V601.472Z" fill="url(#paint0_linear_108_457)"/>
<path d="M418.347 490.746C349.634 613.714 327.759 707.34 367.269 748.71C369.527 751.064 371.95 753.227 374.546 755.2C374.113 755.373 373.68 755.537 373.248 755.693C354.964 762.52 338.004 763.706 322.671 758.687C255.298 736.622 233.173 599.273 252.4 398.202C281.69 196.189 604.102 224.433 604.102 224.433C525.532 321.234 462.331 412.013 418.347 490.755V490.746Z" fill="url(#paint1_linear_108_457)"/>
<path d="M828.638 647.064C827.903 654.964 827.098 662.959 826.233 671.032C803.882 820.435 653.346 851.932 555.004 856.259C544.188 856.501 533.423 856.692 522.702 856.804H522.668C505.587 856.977 488.67 856.951 471.944 856.743C470.196 856.709 468.448 856.683 466.691 856.666C467.539 855.688 468.37 854.693 469.192 853.715C545.598 761.941 609.137 676.501 654.964 601.471C733.438 473.008 760.02 375.091 710.507 328.356H710.49C710.395 328.243 710.282 328.148 710.187 328.053C723.167 323.969 734.969 322.411 745.691 323.147C827.418 328.849 845.183 468.959 828.647 647.055L828.638 647.064Z" fill="url(#paint2_linear_108_457)"/>
<defs>
<linearGradient id="paint0_linear_108_457" x1="367.597" y1="543.99" x2="697.277" y2="540.286" gradientUnits="userSpaceOnUse">
<stop stop-color="#E62AFF"/>
<stop offset="1" stop-color="#7A00D4"/>
</linearGradient>
<linearGradient id="paint1_linear_108_457" x1="460.297" y1="186.74" x2="311.145" y2="755.78" gradientUnits="userSpaceOnUse">
<stop stop-color="#E62AFF"/>
<stop offset="1" stop-color="#7A00D4"/>
</linearGradient>
<linearGradient id="paint2_linear_108_457" x1="761.863" y1="326.149" x2="612.772" y2="894.964" gradientUnits="userSpaceOnUse">
<stop stop-color="#E62AFF"/>
<stop offset="1" stop-color="#7A00D4"/>
</linearGradient>
</defs>
</svg>
