<svg width="26" height="40" viewBox="0 0 26 40" fill="none" xmlns="http://www.w3.org/2000/svg">
<path d="M13 30.887C12.6407 30.887 12.2894 30.9935 11.9906 31.1932C11.6918 31.3928 11.4589 31.6766 11.3214 32.0086C11.1839 32.3406 11.1479 32.7059 11.218 33.0583C11.2881 33.4108 11.4612 33.7345 11.7153 33.9886C11.9694 34.2427 12.2931 34.4157 12.6455 34.4858C12.998 34.5559 13.3633 34.52 13.6953 34.3824C14.0273 34.2449 14.311 34.0121 14.5107 33.7133C14.7103 33.4145 14.8169 33.0632 14.8169 32.7039C14.8169 32.222 14.6255 31.7599 14.2847 31.4191C13.944 31.0784 13.4819 30.887 13 30.887ZM23.9013 0H2.09871C1.61684 0 1.15471 0.191421 0.813982 0.532152C0.473251 0.872883 0.28183 1.33501 0.28183 1.81688V18.1688C0.28183 19.6144 0.856093 21.0008 1.87829 22.023C2.90048 23.0452 4.28687 23.6195 5.73247 23.6195H7.54935V27.9255C6.62426 28.9744 6.02149 30.268 5.81338 31.6511C5.60527 33.0341 5.80066 34.4479 6.3761 35.7226C6.95155 36.9974 7.8826 38.079 9.05753 38.8377C10.2325 39.5964 11.6014 40 13 40C14.3986 40 15.7675 39.5964 16.9425 38.8377C18.1174 38.079 19.0484 36.9974 19.6239 35.7226C20.1993 34.4479 20.3947 33.0341 20.1866 31.6511C19.9785 30.268 19.3757 28.9744 18.4506 27.9255V23.6195H20.2675C21.7131 23.6195 23.0995 23.0452 24.1217 22.023C25.1439 21.0008 25.7182 19.6144 25.7182 18.1688V1.81688C25.7182 1.33501 25.5267 0.872883 25.186 0.532152C24.8453 0.191421 24.3832 0 23.9013 0ZM13 36.3376C12.2689 36.3321 11.5565 36.1061 10.9558 35.6893C10.3552 35.2725 9.89422 34.6842 9.63321 34.0012C9.3722 33.3183 9.32327 32.5725 9.49282 31.8613C9.66236 31.1501 10.0425 30.5066 10.5835 30.0149C10.7718 29.845 10.9223 29.6376 11.0256 29.4061C11.1289 29.1745 11.1825 28.9239 11.1831 28.6704V23.6195H14.8169V28.6704C14.8175 28.9239 14.8711 29.1745 14.9744 29.4061C15.0777 29.6376 15.2282 29.845 15.4164 30.0149C15.9575 30.5066 16.3376 31.1501 16.5072 31.8613C16.6767 32.5725 16.6278 33.3183 16.3668 34.0012C16.1058 34.6842 15.6448 35.2725 15.0442 35.6893C14.4435 36.1061 13.7311 36.3321 13 36.3376ZM22.0844 18.1688C22.0844 18.6507 21.893 19.1128 21.5523 19.4535C21.2115 19.7943 20.7494 19.9857 20.2675 19.9857H5.73247C5.25061 19.9857 4.78848 19.7943 4.44774 19.4535C4.10701 19.1128 3.91559 18.6507 3.91559 18.1688V16.3519H22.0844V18.1688ZM22.0844 12.7182H3.91559V3.63376H22.0844V12.7182Z" fill="#B718EC"/>
</svg>
