<svg width="56" height="56" viewBox="0 0 56 56" fill="none" xmlns="http://www.w3.org/2000/svg">
<rect width="56" height="56" rx="15" fill="#B718EC"/>
<path d="M34.125 23.1875H31.5V22.3125C31.5 21.6163 31.2234 20.9486 30.7312 20.4563C30.2389 19.9641 29.5712 19.6875 28.875 19.6875H27.125C26.4288 19.6875 25.7611 19.9641 25.2688 20.4563C24.7766 20.9486 24.5 21.6163 24.5 22.3125V23.1875H21.875C21.1788 23.1875 20.5111 23.4641 20.0188 23.9563C19.5266 24.4486 19.25 25.1163 19.25 25.8125V33.6875C19.25 34.3837 19.5266 35.0514 20.0188 35.5437C20.5111 36.0359 21.1788 36.3125 21.875 36.3125H34.125C34.8212 36.3125 35.4889 36.0359 35.9812 35.5437C36.4734 35.0514 36.75 34.3837 36.75 33.6875V25.8125C36.75 25.1163 36.4734 24.4486 35.9812 23.9563C35.4889 23.4641 34.8212 23.1875 34.125 23.1875ZM26.25 22.3125C26.25 22.0804 26.3422 21.8579 26.5063 21.6938C26.6704 21.5297 26.8929 21.4375 27.125 21.4375H28.875C29.1071 21.4375 29.3296 21.5297 29.4937 21.6938C29.6578 21.8579 29.75 22.0804 29.75 22.3125V23.1875H26.25V22.3125ZM35 33.6875C35 33.9196 34.9078 34.1421 34.7437 34.3062C34.5796 34.4703 34.3571 34.5625 34.125 34.5625H21.875C21.6429 34.5625 21.4204 34.4703 21.2563 34.3062C21.0922 34.1421 21 33.9196 21 33.6875V28.875C23.228 29.7589 25.6031 30.2131 28 30.2137C30.3968 30.2123 32.7718 29.7581 35 28.875V33.6875ZM35 26.9588C32.7936 27.9281 30.4099 28.4286 28 28.4286C25.5901 28.4286 23.2064 27.9281 21 26.9588V25.8125C21 25.5804 21.0922 25.3579 21.2563 25.1938C21.4204 25.0297 21.6429 24.9375 21.875 24.9375H34.125C34.3571 24.9375 34.5796 25.0297 34.7437 25.1938C34.9078 25.3579 35 25.5804 35 25.8125V26.9588Z" fill="white"/>
</svg>
